<?xml version="1.0" encoding="UTF-8"?>
<svg version="1.1" xmlns="http://www.w3.org/2000/svg" width="96" height="96">
<path d="M0 0 C31.68 0 63.36 0 96 0 C96 31.68 96 63.36 96 96 C64.32 96 32.64 96 0 96 C0 64.32 0 32.64 0 0 Z " fill="#0289FD" transform="translate(0,0)"/>
<path d="M0 0 C10.23 0 20.46 0 31 0 C31 2.97 31 5.94 31 9 C24.07 9 17.14 9 10 9 C10 12.96 10 16.92 10 21 C17.59 21 25.18 21 33 21 C33 23.64 33 26.28 33 29 C22.11 29 11.22 29 0 29 C0 19.43 0 9.86 0 0 Z " fill="#FDFEFE" transform="translate(32,43)"/>
<path d="M0 0 C10.89 0 21.78 0 33 0 C33 2.97 33 5.94 33 9 C22.11 9 11.22 9 0 9 C0 6.03 0 3.06 0 0 Z " fill="#FCFCFD" transform="translate(32,23)"/>
<path d="M0 0 C10.23 0 20.46 0 31 0 C31 2.97 31 5.94 31 9 C24.07 9 17.14 9 10 9 C10 8.67 10 8.34 10 8 C16.6 8 23.2 8 30 8 C29.67 6.02 29.34 4.04 29 2 C19.76 2 10.52 2 1 2 C1 10.58 1 19.16 1 28 C10.9 28 20.8 28 31 28 C31 26.02 31 24.04 31 22 C24.07 22 17.14 22 10 22 C10 21.67 10 21.34 10 21 C17.59 21 25.18 21 33 21 C33 23.64 33 26.28 33 29 C22.11 29 11.22 29 0 29 C0 19.43 0 9.86 0 0 Z " fill="#E3FEFF" transform="translate(32,43)"/>
<path d="M0 0 C10.89 0 21.78 0 33 0 C33 2.97 33 5.94 33 9 C22.11 9 11.22 9 0 9 C0 6.03 0 3.06 0 0 Z M1 2 C1 3.65 1 5.3 1 7 C10.9 7 20.8 7 31 7 C31 5.35 31 3.7 31 2 C21.1 2 11.2 2 1 2 Z " fill="#C7F3FF" transform="translate(32,23)"/>
<path d="M0 0 C10.23 0 20.46 0 31 0 C31 2.97 31 5.94 31 9 C24.07 9 17.14 9 10 9 C10 8.67 10 8.34 10 8 C16.6 8 23.2 8 30 8 C29.67 6.02 29.34 4.04 29 2 C19.76 2 10.52 2 1 2 C0.67 1.34 0.34 0.68 0 0 Z " fill="#C6F5FE" transform="translate(32,43)"/>
</svg>
