<?xml version="1.0" encoding="UTF-8"?>
<svg xmlns="http://www.w3.org/2000/svg" viewBox="0 0 183 187.26">
  <defs>
    <style>
      .cls-1{fill:#447099;}
      .cls-3{fill:#ee6331;}
    </style>
  </defs>

  <!-- Orange Shapes -->
  <polygon class="cls-3" points="39.37 76.47 47.38 72.9 83.6 56.76 91.5 53.24 179 14.23 179 61.28 143.62 76.47 135.62 72.9 172.61 57.01 172.61 24.14 99.4 56.76 91.5 60.29 55.43 76.36 47.43 79.93 21.91 91.3 21.91 99.74 47.04 110.95 55.04 114.52 92.06 131.01 99.92 134.51 172.61 166.91 172.61 133.69 136.01 117.98 144.02 114.41 179 129.43 179 176.81 92.09 138.07 84.24 134.57 46.99 117.98 38.98 114.41 15.51 103.94 15.51 87.11 39.37 76.47"/>
  <polygon class="cls-3" points="99.65 95.35 135.57 79.93 127.56 76.36 83.33 95.35 127.95 114.52 135.95 110.95 99.65 95.35"/>

  <!-- Blue Shapes -->
  <polygon class="cls-1" points="47.04 110.95 55.04 114.52 91.5 98.86 83.34 95.35 47.04 110.95"/>
  <polygon class="cls-1" points="55.43 76.36 47.43 79.93 83.34 95.35 91.5 91.85 55.43 76.36"/>
  <polygon class="cls-1" points="143.62 76.47 135.62 72.9 99.4 56.76 91.5 53.24 4 14.23 4 61.28 39.37 76.47 47.38 72.9 10.39 57.01 10.39 24.14 83.6 56.76 91.5 60.29 127.57 76.36 135.57 79.93 161.09 91.3 161.09 99.74 135.96 110.95 127.96 114.52 90.94 131.01 83.08 134.51 10.39 166.91 10.39 133.69 46.99 117.98 38.98 114.41 4 129.43 4 176.81 90.91 138.07 98.76 134.57 136.01 117.98 144.02 114.41 167.49 103.94 167.49 87.11 143.62 76.47"/>
</svg>